<svg width="200" height="50" viewBox="0 0 200 50" fill="none" xmlns="http://www.w3.org/2000/svg">
<path d="M8.72 34.792C7.632 34.6 7.088 34.152 7.088 33.448V33.256C7.44 31.848 7.856 28.68 8.304 23.816C8.592 20.552 8.976 17.736 9.488 15.4C10.032 14.952 10.512 14.728 10.928 14.728C10.992 14.728 12.368 16.52 15.088 20.104C19.344 25.544 21.68 28.424 22.096 28.744C22.096 28.84 22.128 28.872 22.192 28.872C22.576 28.872 23.056 26.92 23.632 23.048L25.264 16.712C25.264 15.112 25.712 14.088 26.576 13.64H26.928C27.92 13.864 28.432 14.6 28.432 15.848C27.504 17.736 27.024 19.048 27.024 19.784C26.736 20.552 26.288 22.28 25.712 25.032C25.584 25.256 25.36 26.6 25.04 29.064C25.008 29.096 24.784 29.672 24.4 30.824L24.496 31.048C24.496 32.584 23.952 33.352 22.864 33.352H22.512C22.064 33.32 21.264 32.36 20.112 30.504C19.984 30.44 18.096 28.04 14.416 23.272C13.744 22.6 13.008 21.704 12.24 20.552C11.728 19.944 11.408 19.656 11.248 19.656C10.448 26.088 10.064 30.472 10.064 32.808C9.968 34.12 9.52 34.792 8.72 34.792ZM38.7153 33.928C36.8593 33.928 35.2593 33.544 33.9153 32.744C32.6033 32.04 31.6432 30.632 31.0673 28.488C30.8433 27.016 30.6833 26.152 30.6193 25.96H30.7153C30.7153 25.864 30.6833 25.832 30.6193 25.832C30.6193 21 32.0273 17.768 34.8753 16.2C36.7313 15.048 38.7793 14.472 41.0193 14.472L42.4273 15.656C43.6113 15.976 44.5713 16.616 45.3073 17.64C45.9473 19.112 46.2673 20.392 46.2673 21.48L45.0833 28.36C44.0593 30.888 42.9713 32.392 41.7873 32.84C41.2113 33.288 40.7633 33.512 40.4753 33.512C40.4753 33.64 39.8993 33.768 38.7153 33.928ZM38.0753 30.888C39.7073 30.888 41.1473 30.12 42.3313 28.584C43.1953 26.856 43.6433 24.52 43.6433 21.576C43.7073 21.576 43.7393 21.384 43.7393 21.032C43.7393 19.752 43.3233 19.016 42.4273 18.824C40.6993 18.824 39.8033 18.472 39.8033 17.736C39.8033 17.576 39.7073 17.512 39.4833 17.512C37.0193 18.184 35.4513 19.144 34.7793 20.36C33.8193 21.608 33.3393 22.984 33.3393 24.424V26.408C33.3393 28.648 34.5233 30.12 36.8593 30.76C37.2433 30.824 37.6593 30.888 38.0753 30.888ZM64.5468 34.984C63.4588 34.792 62.9148 33.768 62.9148 31.912V31.592C63.1068 29.992 63.2988 28.328 63.4588 26.536H63.3308L63.4588 26.344C63.4588 25.448 63.4908 24.808 63.5548 24.36C63.5548 24.296 63.5228 24.264 63.4588 24.264L63.5548 23.72C63.5548 23.336 63.5228 23.176 63.4588 23.176L63.5548 22.952C63.5548 20.968 63.5228 19.816 63.4588 19.432C62.8188 19.88 61.7948 21.064 60.3868 22.952C59.4588 23.88 58.7868 24.36 58.3068 24.36C57.6028 24.36 56.9308 23.912 56.2268 23.048C54.2108 21.032 53.0908 19.688 52.8348 19.016H52.7068C52.7068 21.128 52.7388 22.44 52.8348 22.952C52.8348 23.016 52.8028 23.048 52.7068 23.048C52.8028 23.4 52.8348 23.688 52.8348 23.816C53.0588 29.448 53.3788 32.264 53.8268 32.264V32.68C53.5068 33.64 53.0588 34.12 52.3868 34.12H51.8428C51.3948 34.12 51.0428 33.768 50.7548 33.128C50.7548 31.336 50.7868 30.216 50.8508 29.736L50.5308 26.664C50.5308 26.6 50.5628 26.472 50.6268 26.344C50.4988 23.24 50.3708 19.592 50.3068 15.4C50.5628 14.088 50.9788 13.416 51.6188 13.416H51.9388C52.5148 13.416 53.3148 14.472 54.3708 16.584C55.1388 17.832 55.8108 18.76 56.3228 19.432L57.8588 20.744C58.4348 20.744 59.6188 19.688 61.3788 17.576C62.7548 16.072 63.5228 15.048 63.6508 14.504C64.3548 14.216 64.7068 14.088 64.7708 14.088C65.5708 14.088 66.1468 14.664 66.5308 15.816C66.1468 17.608 65.9548 19.848 65.9548 22.6C65.9548 23.752 65.9228 24.52 65.8588 24.904L65.9548 25.128L65.8588 25.8C65.8588 26.024 65.8908 26.216 65.9548 26.344L65.8588 26.76C65.9548 28.744 66.0508 29.736 66.1788 29.736L66.0828 30.504C66.3068 31.432 66.4028 32.136 66.4028 32.584C65.8268 33.96 65.5068 34.664 65.4108 34.664C65.1228 34.888 64.8028 34.984 64.5468 34.984ZM82.906 36.584H82.682C81.754 36.584 81.274 35.912 81.274 34.6L81.178 33.832C81.242 33 81.274 32.2 81.274 31.432C81.274 31.112 81.21 30.6 81.05 29.896L81.178 29.672L80.602 26.056C79.642 25.992 78.906 25.96 78.426 25.96C77.85 25.96 77.562 25.928 77.562 25.832C77.466 25.832 77.434 25.864 77.434 25.96L76.442 25.832C75.066 25.832 74.394 26.088 74.394 26.6C73.338 28.712 72.602 30.792 72.186 32.84C72.186 33.544 71.738 34.12 70.874 34.6H70.01C69.658 34.6 69.434 33.8 69.338 32.2C70.074 30.28 71.066 27.944 72.314 25.192C72.314 24.68 72.346 24.424 72.41 24.424L72.314 24.2V23.528C73.306 22.728 73.818 22.024 73.818 21.448C76.346 15.112 78.042 11.944 78.874 11.944L80.186 11.816C81.114 12.264 81.594 13.224 81.594 14.664C81.594 14.728 81.562 14.792 81.498 14.792C82.362 20.264 83.162 26.184 83.898 32.52C83.994 34.184 84.09 35.048 84.25 35.048C84.25 35.592 83.802 36.104 82.906 36.584ZM80.186 23.432L80.282 23.208C80.282 22.952 79.898 20.36 79.098 15.432C78.458 15.912 77.402 18.344 75.898 22.792C76.154 22.92 76.378 22.984 76.57 22.984C77.914 22.984 79.098 23.144 80.186 23.432ZM90.22 34.92H89.9C89.036 34.92 88.588 34.088 88.588 32.392C88.588 32.328 88.652 32.04 88.812 31.528V26.152L88.908 24.84H88.812L88.908 24.616C88.908 23.912 88.876 23.368 88.812 22.984L88.908 22.344C88.908 22.248 88.876 22.152 88.812 21.992L89.036 19.272C88.94 17.544 88.844 16.264 88.684 15.432C88.684 14.248 89.132 13.576 89.996 13.448C91.052 14.088 91.564 14.728 91.564 15.432C91.404 16.072 91.308 17.8 91.212 20.68L91.34 21.352C91.244 21.48 91.212 21.608 91.212 21.672C91.212 21.736 91.244 21.768 91.34 21.768C91.244 22.152 91.18 22.952 91.116 24.2L91.212 24.84C91.212 24.936 91.18 25.032 91.116 25.192L91.212 25.832L91.116 27.144L91.212 27.816C91.212 27.88 91.18 27.976 91.116 28.136C91.244 30.408 91.404 31.528 91.66 31.528C94.572 31.368 96.972 31.304 98.892 31.304C99.98 31.304 101.068 31.336 102.156 31.432C102.444 31.336 102.828 31.304 103.372 31.304C103.948 31.304 104.396 31.848 104.684 32.968C104.684 33.576 104.396 34.088 103.82 34.472H103.148C101.804 34.248 100.524 34.152 99.308 34.152H97.452C94.924 34.152 92.524 34.408 90.22 34.92ZM136.079 35.688C135.311 35.688 134.703 34.888 134.191 33.288C131.855 29.96 130.415 26.44 129.935 22.792C129.839 21.672 129.679 21.128 129.487 21.128C128.623 25.8 127.087 29.768 124.879 32.968C124.239 34.12 123.535 34.728 122.799 34.728H122.575C121.647 34.216 121.167 33.384 121.167 32.2C120.431 30.632 119.887 28.744 119.535 26.504C119.247 26.504 119.055 25.768 118.863 24.328C118.479 24.328 118.191 23.592 117.999 22.12C117.679 22.12 117.423 20.936 117.231 18.6C116.847 17.64 116.591 16.744 116.463 15.88C116.719 14.728 117.007 14.12 117.327 14.12C118.287 14.6 118.767 15.208 118.767 16.008C119.343 19.112 120.463 23.144 122.159 28.04C122.767 29.64 123.183 30.504 123.375 30.664C124.047 30.248 125.167 28.072 126.767 24.104C127.631 20.04 128.079 17.384 128.079 16.104H127.951C128.111 15.464 128.431 14.92 128.943 14.472H129.167C130.671 14.472 131.887 18.024 132.783 25.192C133.551 27.336 134.479 29.256 135.503 30.984C135.855 30.984 136.623 28.808 137.807 24.424C138.383 20.456 138.703 18.312 138.703 17.96C138.863 17.96 138.959 17.128 139.023 15.432C138.799 15.432 138.703 15.048 138.703 14.248C138.703 13.928 139.119 13.416 140.015 12.712C140.527 12.712 141.071 13.16 141.647 14.024V14.568C141.647 14.76 141.391 15.528 140.879 16.872C140.527 18.824 140.047 22.088 139.471 26.6C139.151 27.592 138.831 28.968 138.479 30.76C138.351 30.76 138.063 31.752 137.583 33.736L137.711 34.28C137.711 34.888 137.167 35.368 136.079 35.688ZM148.475 36.552H147.483C145.435 36.552 143.899 35.336 142.875 32.936C142.779 31.848 142.715 31.208 142.651 31.08C143.003 28.296 143.515 26.472 144.187 25.608L145.179 24.072C145.307 24.072 145.595 23.784 146.043 23.208C147.035 22.76 147.739 22.536 148.251 22.536C148.731 22.536 149.179 22.632 149.562 22.856L151.067 22.632C152.475 23.048 153.179 23.656 153.179 24.488C153.467 24.488 153.787 25.64 154.043 27.912C154.043 27.976 154.011 28.072 153.915 28.232C154.011 28.616 154.043 28.904 154.043 29.096C154.043 32.296 152.891 34.6 150.555 36.008C149.786 36.36 149.115 36.552 148.475 36.552ZM148.251 33.576C149.979 33.576 151.227 32.52 151.963 30.408C152.187 29.416 152.283 28.648 152.283 28.136C152.091 26.216 151.611 25.256 150.875 25.256H150.331C148.699 25.64 147.675 26.152 147.259 26.792C147.099 26.952 146.619 27.176 145.819 27.464C145.307 28.648 145.051 29.992 145.051 31.496C145.051 32.296 145.723 32.936 147.035 33.48C147.355 33.48 147.739 33.512 148.251 33.576ZM159.157 36.552H158.837C158.133 36.552 157.685 36.008 157.525 34.92C157.525 34.728 157.557 34.184 157.621 33.256C157.269 30.472 156.789 28.264 156.213 26.696C156.213 25.704 156.565 25 157.301 24.52C158.485 24.52 159.189 25.64 159.381 27.912C159.605 28.264 159.733 28.52 159.733 28.648H159.829C161.045 27.016 162.005 26.152 162.709 26.088C163.189 25.736 163.925 25.544 164.981 25.48C165.621 25.48 165.941 25.448 165.941 25.384L166.485 25.48C167.477 25.384 168.053 25.288 168.181 25.224C169.269 25.896 169.813 26.504 169.813 26.984C169.589 28.232 168.981 28.84 168.053 28.84C167.285 28.424 166.453 28.2 165.557 28.2C163.509 28.2 161.973 29.384 160.917 31.72L160.469 33.48L160.693 35.016C160.341 36.04 159.829 36.552 159.157 36.552ZM174.522 36.552C173.85 36.552 173.242 36.04 172.634 35.016L172.762 33.384C172.25 29.448 171.994 26.184 171.994 23.624C172.058 21.544 172.09 19.208 172.09 16.616C172.09 15.56 172.442 14.824 173.082 14.408C173.21 14.344 173.37 14.312 173.53 14.312C174.01 14.312 174.394 14.792 174.714 15.752C174.586 18.728 174.522 20.488 174.522 21C174.522 25.96 174.65 28.456 174.938 28.456L174.842 28.648C175.13 31.944 175.514 33.576 175.93 33.576L176.026 34.792C175.738 35.976 175.226 36.552 174.522 36.552ZM189.285 36.52C187.973 36.424 187.333 35.848 187.333 34.76C186.405 35.304 185.189 35.56 183.685 35.56C181.829 35.56 180.261 34.856 178.917 33.416C178.629 32.744 178.501 32.168 178.501 31.688C178.501 29.832 179.493 27.656 181.509 25.192C182.949 23.976 184.133 23.368 185.125 23.368C186.053 23.368 187.237 23.88 188.645 24.936L188.741 24.904C189.093 23.336 189.349 20.488 189.541 16.424C190.085 15.432 190.629 14.888 191.237 14.824C191.845 15.176 192.197 15.592 192.261 16.136L192.293 16.744C192.293 17.896 192.069 20.072 191.653 23.272C191.493 25.896 191.269 28.2 190.981 30.184C190.725 30.696 190.597 32.104 190.597 34.376V35.4C190.437 36.072 189.989 36.456 189.285 36.52ZM184.133 32.52C184.869 32.52 185.477 32.424 185.925 32.264L187.717 32.424C188.005 31.208 188.165 30.312 188.165 29.736C188.133 28.232 187.141 27.08 185.157 26.312C184.357 26.568 183.557 27.016 182.789 27.688C181.765 29.096 181.285 30.12 181.285 30.76L181.349 31.592C181.989 32.2 182.917 32.52 184.133 32.52Z" fill="black"/>
</svg>
